<svg width="445" height="406" viewBox="0 0 445 406" fill="none" xmlns="http://www.w3.org/2000/svg">
<path d="M45.0827 404.232V361.826H57.5582V366.091C59.8193 363.355 63.64 360.941 68.864 360.941C77.285 360.941 82.587 366.976 82.587 376.23V404.232H70.1116V379.931C70.1116 375.667 68.3962 372.528 64.3417 372.528C60.911 372.528 57.5582 375.023 57.5582 380.012V404.232H45.0827Z" fill="white"/>
<path d="M99.8973 346.458V404.232H87.4219V346.458H99.8973Z" fill="white"/>
<path d="M122.454 404.232V361.826H134.93V366.091C137.191 363.355 141.011 360.941 146.235 360.941C154.656 360.941 159.958 366.976 159.958 376.23V404.232H147.483V379.931C147.483 375.667 145.768 372.528 141.713 372.528C138.282 372.528 134.93 375.023 134.93 380.012V404.232H122.454Z" fill="white"/>
<path d="M183.35 405.117C170.953 405.117 162.532 396.185 162.532 382.989C162.532 370.436 171.265 360.941 183.117 360.941C195.592 360.941 202.376 370.436 202.376 382.426V385.805H174.54C175.397 391.599 178.75 394.898 183.506 394.898C187.405 394.898 190.446 392.967 191.615 389.265L202.064 392.725C199.023 400.852 191.537 405.117 183.35 405.117ZM182.961 370.919C179.14 370.919 176.177 373.253 174.93 377.92H190.056C189.978 374.138 187.561 370.919 182.961 370.919Z" fill="white"/>
<path fill-rule="evenodd" clip-rule="evenodd" d="M117.413 404.232V361.826H104.938V404.232H117.413Z" fill="white"/>
<path d="M220.377 347.235V377.812L207.901 389.802L219.623 378.536L216.011 375.318L220.377 377.812V386.261V392.698V405.01H207.901V347.235H220.377Z" fill="white"/>
<path d="M252.119 405.01V347.235H264.595V366.869C266.856 364.133 270.677 361.719 275.901 361.719C284.322 361.719 289.624 367.754 289.624 377.007V405.01H277.148V380.709C277.148 376.444 275.433 373.306 271.378 373.306C267.948 373.306 264.595 375.8 264.595 380.789V405.01H252.119Z" fill="white"/>
<path d="M306.076 405.814C297.811 405.814 291.885 400.664 291.885 393.181C291.885 384.41 299.059 380.87 307.714 379.582L316.914 377.973V377.249C316.914 374.111 315.277 372.099 311.222 372.099C307.636 372.099 305.764 373.708 304.985 377.168L293.055 375.318C294.848 367.834 301.32 361.719 311.768 361.719C322.528 361.719 329.156 366.788 329.156 376.686V393.02C329.156 395.193 329.935 395.836 332.353 395.515V405.01C325.179 406.217 320.345 404.849 318.24 401.228C315.511 404.124 311.456 405.814 306.076 405.814ZM316.914 389.802V386.261L309.741 387.629C306.466 388.192 304.049 389.319 304.049 392.296C304.049 394.951 305.998 396.4 308.961 396.4C313.094 396.4 316.914 394.147 316.914 389.802Z" fill="white"/>
<path d="M358.367 405.895C353.455 405.895 349.556 403.803 347.217 400.825V405.01H334.742V347.235H347.217V366.869C349.556 363.811 353.455 361.719 358.367 361.719C369.673 361.719 376.067 371.697 376.067 383.847C376.067 395.917 369.673 405.895 358.367 405.895ZM347.139 382.721V384.974C347.139 391.33 350.492 394.951 355.17 394.951C360.628 394.951 363.513 390.365 363.513 383.847C363.513 377.329 360.628 372.743 355.17 372.743C350.492 372.743 347.139 376.283 347.139 382.721Z" fill="white"/>
<path d="M390.526 405.814C382.261 405.814 376.335 400.664 376.335 393.181C376.335 384.41 383.509 380.87 392.163 379.582L401.364 377.973V377.249C401.364 374.111 399.727 372.099 395.672 372.099C392.085 372.099 390.214 373.708 389.434 377.168L377.505 375.318C379.298 367.834 385.77 361.719 396.218 361.719C406.978 361.719 413.605 366.788 413.605 376.686V393.02C413.605 395.193 414.385 395.836 416.802 395.515V405.01C409.629 406.217 404.795 404.849 402.689 401.228C399.96 404.124 395.906 405.814 390.526 405.814ZM401.364 389.802V386.261L394.191 387.629C390.916 388.192 388.499 389.319 388.499 392.296C388.499 394.951 390.448 396.4 393.411 396.4C397.543 396.4 401.364 394.147 401.364 389.802Z" fill="white"/>
<path d="M445 362.524V374.915C443.674 374.674 442.739 374.593 441.335 374.593C435.955 374.593 431.667 378.054 431.667 384.169V405.01H419.191V362.604H431.667V368.156C433.538 364.777 437.515 362.363 442.271 362.363C443.441 362.363 444.22 362.443 445 362.524Z" fill="white"/>
<ellipse cx="110.917" cy="351.705" rx="6.49762" ry="6.70548" fill="white"/>
<path fill-rule="evenodd" clip-rule="evenodd" d="M0 383.571C0 371.588 9.4124 361.875 21.0237 361.875C32.635 361.875 42.0474 371.588 42.0474 383.571C42.0474 395.554 32.635 405.267 21.0237 405.267C9.4124 405.267 0 395.554 0 383.571ZM21.0238 393.214C26.1843 393.214 30.3677 388.897 30.3677 383.571C30.3677 378.246 26.1843 373.928 21.0238 373.928C15.8634 373.928 11.68 378.246 11.68 383.571C11.68 388.897 15.8634 393.214 21.0238 393.214Z" fill="white"/>
<path d="M245.546 361.875H233.533C232.477 361.875 231.494 362.44 230.92 363.378L220.899 379.045C219.122 381.949 219.144 385.688 220.953 388.568L232.448 403.798C233.025 404.715 233.997 405.267 235.041 405.267H247.157C247.864 405.267 248.574 404.091 248.197 403.459L235.041 385.379C234.399 384.307 234.249 383.553 234.89 382.478L246.306 363.327C246.681 362.695 246.253 361.875 245.546 361.875Z" fill="white"/>
<path d="M61.3876 97.2833C65.4848 41.5421 113.061 0 168.952 0H274.986C332.534 0 380.749 43.9769 383.843 101.442C384.909 121.241 385.729 141.186 385.954 158.431C386.153 173.692 385.689 190.346 384.878 206.777C382.104 262.941 334.336 305 278.103 305H169.91C113.609 305 65.8809 262.863 61.6765 206.72C60.3887 189.524 59.3967 172.621 59.0777 158.431C58.6967 141.475 59.7568 119.47 61.3876 97.2833Z" fill="white"/>
<path d="M187.758 77.3213C145.777 77.3213 111.747 111.395 111.747 153.429C111.747 195.463 145.777 229.537 187.758 229.537C229.738 229.537 263.769 195.463 263.769 153.429C263.769 111.395 229.738 77.3213 187.758 77.3213ZM187.758 181.907C172.05 181.907 159.316 169.157 159.316 153.429C159.316 137.701 172.05 124.951 187.758 124.951C203.466 124.951 216.199 137.701 216.199 153.429C216.199 169.157 203.466 181.907 187.758 181.907Z" fill="#0463C3"/>
<path d="M337.224 77.6542H262.819C258.926 77.6542 255.305 79.629 253.187 82.9031L220.562 133.413C214.013 143.555 214.093 156.614 220.759 166.676L258.819 224.077C260.946 227.28 264.529 229.208 268.376 229.208H334.553C337.158 229.208 338.737 226.333 337.345 224.128L297.965 161.882C295.599 158.138 295.59 153.368 297.951 149.615L340.025 82.7249C341.407 80.5202 339.828 77.6542 337.224 77.6542Z" fill="#EC3534"/>
</svg>
