<svg width="163" height="50" viewBox="0 0 163 50" fill="none" xmlns="http://www.w3.org/2000/svg">
<path d="M64.4164 29.4145L67.8064 25.9945C68.2664 26.6145 68.8564 27.1545 69.5764 27.6145C70.3164 28.0745 71.1064 28.4245 71.9464 28.6645C72.7864 28.9045 73.6164 29.0245 74.4364 29.0245C75.2964 29.0245 76.0164 28.9445 76.5964 28.7845C77.1964 28.6045 77.6464 28.3645 77.9464 28.0645C78.2464 27.7445 78.3964 27.3745 78.3964 26.9545C78.3964 26.3545 78.0664 25.8545 77.4064 25.4545C76.7464 25.0345 75.5164 24.6945 73.7164 24.4345C71.7964 24.1545 70.2164 23.7345 68.9764 23.1745C67.7364 22.5945 66.8164 21.8745 66.2164 21.0145C65.6164 20.1345 65.3164 19.1045 65.3164 17.9245C65.3164 16.5845 65.6964 15.3945 66.4564 14.3545C67.2164 13.3145 68.2564 12.5045 69.5764 11.9245C70.9164 11.3245 72.4364 11.0245 74.1364 11.0245C76.1564 11.0245 77.9464 11.3945 79.5064 12.1345C81.0864 12.8745 82.3964 13.8345 83.4364 15.0145L80.0764 18.4345C79.3964 17.4945 78.5164 16.7545 77.4364 16.2145C76.3764 15.6745 75.2964 15.4045 74.1964 15.4045C73.1164 15.4045 72.2364 15.6045 71.5564 16.0045C70.8764 16.4045 70.5364 16.9245 70.5364 17.5645C70.5364 17.9245 70.6664 18.2345 70.9264 18.4945C71.2064 18.7545 71.6864 18.9845 72.3664 19.1845C73.0464 19.3645 73.9864 19.5545 75.1864 19.7545C77.0464 20.0345 78.5964 20.4745 79.8364 21.0745C81.0964 21.6745 82.0364 22.4345 82.6564 23.3545C83.2964 24.2745 83.6164 25.3645 83.6164 26.6245C83.6164 28.0245 83.2164 29.2345 82.4164 30.2545C81.6164 31.2745 80.5164 32.0645 79.1164 32.6245C77.7364 33.1645 76.1364 33.4345 74.3164 33.4345C72.1564 33.4345 70.2264 33.0645 68.5264 32.3245C66.8464 31.5645 65.4764 30.5945 64.4164 29.4145ZM94.6085 32.9545H90.6485C89.0685 32.9545 87.8985 32.5745 87.1385 31.8145C86.3785 31.0545 85.9985 29.8845 85.9985 28.3045V13.8745H91.0685V27.3145C91.0685 27.8945 91.1785 28.3045 91.3985 28.5445C91.6185 28.7645 92.0085 28.8745 92.5685 28.8745H94.6085V32.9545ZM94.4585 21.6745H83.6285V17.6545H94.4585V21.6745ZM103.097 33.4345C101.377 33.4345 99.8569 33.0945 98.5369 32.4145C97.2369 31.7145 96.2169 30.7545 95.4769 29.5345C94.7569 28.2945 94.3969 26.8845 94.3969 25.3045C94.3969 23.7045 94.7569 22.2945 95.4769 21.0745C96.2169 19.8545 97.2369 18.9045 98.5369 18.2245C99.8569 17.5245 101.377 17.1745 103.097 17.1745C104.817 17.1745 106.327 17.5245 107.627 18.2245C108.947 18.9045 109.967 19.8545 110.687 21.0745C111.427 22.2945 111.797 23.6945 111.797 25.2745C111.797 26.8745 111.427 28.2945 110.687 29.5345C109.967 30.7545 108.947 31.7145 107.627 32.4145C106.327 33.0945 104.817 33.4345 103.097 33.4345ZM103.097 29.2945C103.797 29.2945 104.407 29.1245 104.927 28.7845C105.447 28.4445 105.847 27.9745 106.127 27.3745C106.427 26.7745 106.577 26.0845 106.577 25.3045C106.577 24.5245 106.427 23.8345 106.127 23.2345C105.847 22.6345 105.447 22.1645 104.927 21.8245C104.407 21.4845 103.797 21.3145 103.097 21.3145C102.417 21.3145 101.807 21.4845 101.267 21.8245C100.747 22.1645 100.337 22.6345 100.037 23.2345C99.7569 23.8345 99.6169 24.5245 99.6169 25.3045C99.6169 26.0845 99.7569 26.7745 100.037 27.3745C100.337 27.9745 100.747 28.4445 101.267 28.7845C101.807 29.1245 102.417 29.2945 103.097 29.2945ZM122.909 17.3845V21.8845H121.949C120.989 21.8845 120.189 22.0445 119.549 22.3645C118.929 22.6645 118.459 23.1445 118.139 23.8045C117.819 24.4445 117.659 25.2945 117.659 26.3545V32.9545H112.589V17.6545H117.629V22.6945H117.059C117.199 21.2545 117.549 20.1545 118.109 19.3945C118.669 18.6345 119.319 18.1145 120.059 17.8345C120.819 17.5345 121.539 17.3845 122.219 17.3845H122.909ZM128.427 32.9545H123.357V17.6545H128.427V32.9545ZM125.877 15.8845C125.077 15.8845 124.397 15.6245 123.837 15.1045C123.277 14.5645 122.997 13.9045 122.997 13.1245C122.997 12.3245 123.277 11.6645 123.837 11.1445C124.397 10.6045 125.077 10.3345 125.877 10.3345C126.697 10.3345 127.377 10.6045 127.917 11.1445C128.477 11.6645 128.757 12.3245 128.757 13.1245C128.757 13.9045 128.477 14.5645 127.917 15.1045C127.377 15.6245 126.697 15.8845 125.877 15.8845ZM143.052 27.9145L145.512 30.9445C144.752 31.7245 143.742 32.3345 142.482 32.7745C141.242 33.2145 139.902 33.4345 138.462 33.4345C136.602 33.4345 134.982 33.0945 133.602 32.4145C132.222 31.7345 131.142 30.7845 130.362 29.5645C129.602 28.3445 129.222 26.9345 129.222 25.3345C129.222 23.7145 129.592 22.2945 130.332 21.0745C131.072 19.8345 132.072 18.8745 133.332 18.1945C134.612 17.5145 136.032 17.1745 137.592 17.1745C139.132 17.1745 140.502 17.5145 141.702 18.1945C142.902 18.8545 143.842 19.7845 144.522 20.9845C145.202 22.1645 145.542 23.5445 145.542 25.1245V25.3045H140.622V24.7645C140.622 23.9845 140.502 23.3145 140.262 22.7545C140.022 22.1945 139.672 21.7645 139.212 21.4645C138.772 21.1445 138.222 20.9845 137.562 20.9845C136.922 20.9845 136.352 21.1545 135.852 21.4945C135.372 21.8145 134.992 22.2845 134.712 22.9045C134.432 23.5245 134.292 24.2945 134.292 25.2145C134.292 26.1945 134.482 27.0145 134.862 27.6745C135.242 28.3145 135.772 28.7945 136.452 29.1145C137.132 29.4345 137.912 29.5945 138.792 29.5945C140.412 29.5945 141.832 29.0345 143.052 27.9145ZM145.542 26.7745H132.252V23.8345H145.032L145.542 25.1545V26.7745ZM144.872 30.7045L147.422 27.6445C148.082 28.3045 148.912 28.8245 149.912 29.2045C150.912 29.5845 151.872 29.7745 152.792 29.7745C153.552 29.7745 154.132 29.6645 154.532 29.4445C154.952 29.2045 155.162 28.9245 155.162 28.6045C155.162 28.2245 154.962 27.9545 154.562 27.7945C154.162 27.6145 153.372 27.4445 152.192 27.2845C150.032 26.9845 148.402 26.4645 147.302 25.7245C146.202 24.9645 145.652 23.8945 145.652 22.5145C145.652 21.4545 145.952 20.5245 146.552 19.7245C147.152 18.9245 147.972 18.3045 149.012 17.8645C150.052 17.4045 151.232 17.1745 152.552 17.1745C154.152 17.1745 155.562 17.4145 156.782 17.8945C158.022 18.3745 159.052 18.9745 159.872 19.6945L157.322 22.7845C156.702 22.2045 155.972 21.7345 155.132 21.3745C154.312 21.0145 153.462 20.8345 152.582 20.8345C151.902 20.8345 151.372 20.9545 150.992 21.1945C150.612 21.4145 150.422 21.6745 150.422 21.9745C150.422 22.3145 150.632 22.5545 151.052 22.6945C151.492 22.8345 152.272 22.9845 153.392 23.1445C155.452 23.4645 157.062 24.0045 158.222 24.7645C159.382 25.5245 159.962 26.6445 159.962 28.1245C159.962 29.2045 159.652 30.1445 159.032 30.9445C158.412 31.7445 157.542 32.3645 156.422 32.8045C155.302 33.2245 153.992 33.4345 152.492 33.4345C150.972 33.4345 149.532 33.1845 148.172 32.6845C146.832 32.1845 145.732 31.5245 144.872 30.7045Z" fill="white"/>
<path d="M0.391413 15.9481C1.06308 6.81018 8.86241 0 18.025 0H35.4075C44.8416 0 52.7458 7.20934 53.253 16.6298C53.4277 19.8755 53.5622 23.1452 53.599 25.9722C53.6316 28.4741 53.5556 31.2043 53.4226 33.8979C52.9679 43.1052 45.1371 50 35.9186 50H18.1819C8.95225 50 1.12802 43.0924 0.438761 33.8885C0.227649 31.0695 0.0650267 28.2986 0.0127402 25.9722C-0.0497328 23.1926 0.124066 19.5853 0.391413 15.9481Z" fill="white"/>
<path d="M21.1078 12.6756C14.2257 12.6756 8.64697 18.2615 8.64697 25.1523C8.64697 32.0431 14.2257 37.629 21.1078 37.629C27.9899 37.629 33.5686 32.0431 33.5686 25.1523C33.5686 18.2615 27.9899 12.6756 21.1078 12.6756ZM21.1078 29.8207C18.5327 29.8207 16.4453 27.7307 16.4453 25.1523C16.4453 22.5739 18.5327 20.4838 21.1078 20.4838C23.6829 20.4838 25.7704 22.5739 25.7704 25.1523C25.7704 27.7307 23.6829 29.8207 21.1078 29.8207Z" fill="#036EDB"/>
<path d="M45.6105 12.7303H33.4131C32.7749 12.7303 32.1812 13.054 31.8341 13.5908L26.4857 21.8711C25.4121 23.5337 25.4251 25.6745 26.518 27.324L32.7573 36.734C33.1059 37.2592 33.6934 37.5752 34.324 37.5752H45.1728C45.5998 37.5752 45.8586 37.1038 45.6305 36.7424L39.1747 26.5381C38.7868 25.9244 38.7853 25.1424 39.1724 24.5272L46.0698 13.5616C46.2964 13.2001 46.0375 12.7303 45.6105 12.7303Z" fill="#EC3534"/>
</svg>
